<?xml version="1.0" standalone="no"?><!DOCTYPE svg PUBLIC "-//W3C//DTD SVG 1.1//EN" "http://www.w3.org/Graphics/SVG/1.1/DTD/svg11.dtd"><svg t="1629854917169" class="icon" viewBox="0 0 1024 1024" version="1.1" xmlns="http://www.w3.org/2000/svg" p-id="3019" xmlns:xlink="http://www.w3.org/1999/xlink" width="20" height="20"><defs><style type="text/css"></style></defs><path d="M525.026279 62.907567l0.45056 0.254751 367.640976 212.082888A31.97977 31.97977 0 0 1 909.112195 302.460628v424.596355a31.96878 31.96878 0 0 1-15.58478 27.451193l-0.4096 0.239765-367.640976 212.082888a31.96878 31.96878 0 0 1-31.49824 0.255751l-0.45056-0.254752-367.640976-212.082888A31.97977 31.97977 0 0 1 109.892683 727.532519v-424.595356a31.96878 31.96878 0 0 1 15.58478-27.451192l0.4096-0.240765 367.640976-212.082888a31.96878 31.96878 0 0 1 31.49824-0.254751zM509.502439 136.986224L181.822439 326.016624v377.9589l327.68 189.031399 327.68-189.032398V326.017623L509.502439 136.987223zM341.666341 383.625366a7.992195 7.992195 0 0 1 7.992196 7.992195v303.703415a7.992195 7.992195 0 0 1-7.992196 7.992195h-47.95317a7.992195 7.992195 0 0 1-7.992195-7.992195V391.617561a7.992195 7.992195 0 0 1 7.992195-7.992195h47.95317z m189.814635 127.875122a7.992195 7.992195 0 0 1 7.992195 7.992195v175.828293a7.992195 7.992195 0 0 1-7.992195 7.992195h-47.953171a7.992195 7.992195 0 0 1-7.992195-7.992195V519.492683a7.992195 7.992195 0 0 1 7.992195-7.992195h47.953171z m193.810731-63.937561a7.992195 7.992195 0 0 1 7.992195 7.992195v239.765854a7.992195 7.992195 0 0 1-7.992195 7.992195h-47.95317a7.992195 7.992195 0 0 1-7.992196-7.992195V455.555122a7.992195 7.992195 0 0 1 7.992196-7.992195h47.95317z" p-id="3020" fill="#C3CCDF"></path></svg>