<?xml version="1.0" standalone="no"?><!DOCTYPE svg PUBLIC "-//W3C//DTD SVG 1.1//EN" "http://www.w3.org/Graphics/SVG/1.1/DTD/svg11.dtd"><svg t="1629644974483" class="icon" viewBox="0 0 1024 1024" version="1.1" xmlns="http://www.w3.org/2000/svg" p-id="954" xmlns:xlink="http://www.w3.org/1999/xlink" width="30" height="30"><defs><style type="text/css"></style></defs><path d="M751.786667 881.92H298.666667a42.666667 42.666667 0 0 1-42.666667-42.666667V270.08a42.666667 42.666667 0 0 1 42.666667-42.666667h453.12a42.666667 42.666667 0 0 1 42.666666 42.666667v569.173333a42.666667 42.666667 0 0 1-42.666666 42.666667z m-410.453334-85.333333h369.92V312.746667H341.333333z" p-id="955" fill="#8a8a8a"></path><path d="M865.706667 312.746667h-682.666667a42.666667 42.666667 0 0 1 0-85.333334h682.666667a42.666667 42.666667 0 0 1 0 85.333334z" p-id="956" fill="#8a8a8a"></path><path d="M644.266667 312.746667H404.053333a42.666667 42.666667 0 0 1-42.666666-42.666667V156.586667a42.666667 42.666667 0 0 1 42.666666-42.666667h240.213334a42.666667 42.666667 0 0 1 42.666666 42.666667v113.493333a42.666667 42.666667 0 0 1-42.666666 42.666667z m-197.546667-85.333334h154.88v-28.16h-154.88zM445.013333 730.026667a42.666667 42.666667 0 0 1-42.666666-42.666667V421.973333a42.666667 42.666667 0 0 1 85.333333 0v265.386667a42.666667 42.666667 0 0 1-42.666667 42.666667zM603.733333 730.026667a42.666667 42.666667 0 0 1-42.666666-42.666667V421.973333a42.666667 42.666667 0 0 1 85.333333 0v265.386667a42.666667 42.666667 0 0 1-42.666667 42.666667z" p-id="957" fill="#8a8a8a"></path></svg>