<?xml version="1.0" standalone="no"?><!DOCTYPE svg PUBLIC "-//W3C//DTD SVG 1.1//EN" "http://www.w3.org/Graphics/SVG/1.1/DTD/svg11.dtd"><svg t="1629603246867" class="icon" viewBox="0 0 1024 1024" version="1.1" xmlns="http://www.w3.org/2000/svg" p-id="821" width="128" height="128" xmlns:xlink="http://www.w3.org/1999/xlink"><defs><style type="text/css"></style></defs><path d="M64 544C44.8 544 32 531.2 32 512s12.8-32 32-32h896c19.2 0 32 12.8 32 32s-12.8 32-32 32H64z" fill="#FFFFFF" p-id="822"></path><path d="M960 448H64c-38.4 0-64 25.6-64 64s25.6 64 64 64h896c38.4 0 64-25.6 64-64s-25.6-64-64-64z" p-id="823"></path><path d="M512 992c-19.2 0-32-12.8-32-32V64c0-19.2 12.8-32 32-32s32 12.8 32 32v896c0 19.2-12.8 32-32 32z" fill="#FFFFFF" p-id="824"></path><path d="M512 64v896V64m0-64c-38.4 0-64 25.6-64 64v896c0 38.4 25.6 64 64 64s64-25.6 64-64V64c0-38.4-25.6-64-64-64z" p-id="825"></path></svg>